<svg xmlns="http://www.w3.org/2000/svg" viewBox="0 0 193 109"><defs><style>.cls-1,.cls-5{fill:#fff}.cls-2,.cls-6{fill:#ababab}.cls-3,.cls-4{fill:none}.cls-3,.cls-4,.cls-5,.cls-6{stroke:#262626;stroke-linejoin:round;stroke-width:2px}.cls-4,.cls-5{stroke-linecap:round}</style></defs><title>Asset 1</title><g id="Layer_2" data-name="Layer 2"><g id="Illustrations"><path class="cls-1" d="M100.5 61H126l15-6V36l-18-7-18 6.97-1 6.03-3.5 19zM133 14h3v3l-3 1.47M71 70l-7 38 14-38m57 0l4 38-18-32-18 32 5-38m50 0H66l-8-9h108l-8 9zm-4 0l7 38-14-38m11-9h-7l-2-13h11l-2 13zm-25-38l-10 4-10-4V6.47L123 1l10 5.47V23zm-96 85h-9l-5-19h19l-5 19z"/><path class="cls-2" d="M121 76l18 32-4-38h-22l-3.47 26.4L121 76zm34.1 0l-1.1-6h-7l2.21 6h5.89zm-85.21 0L71 70h7l-2.21 6h-5.9zM32.5 89H42l-5 19h-4.5V89zM154 61h4l2-13h-6v13zm-41-49v-1.5L123 5l10 5.5V12h-20z"/><path class="cls-3" d="M133 23l-10 4-10-4V6.47L123 1l10 5.47V23z"/><path class="cls-4" d="M118 16.5V15m8 1.5V15"/><path class="cls-5" d="M72.33 61L65 35h33l7.33 26h-33z"/><path class="cls-6" d="M87.5 47.5l-3 2-3-2v-3l3-2 3 2v3z"/><path class="cls-4" d="M129.27 31.43L123 44l-6.27-12.57M133 12h-29m20.5 9l-2.5 1-2.5-1m13.5-7h3v3l-3 1.47M104.2 57h-33"/><path class="cls-5" d="M105.33 61H121l-2-4h-14.8l1.13 4z"/><path class="cls-4" d="M135 43v7l-15 11h6l15-6V36l-18-7-18 6.97-1 6.03m31 1v5m23 22H66l-8-9h108l-8 9zm-87 0l-7 38 14-38m76 0l7 38-14-38M10 108h174m5 0h3M1 108h3m131-38l4 38-18-32-18 32 5-38m43-28l2-2-4-4 2-2m7 8l2-2-4-4 2-2m0 27h-7l-2-13h11l-2 13zM37 108h-9l-5-19h19l-5 19z"/><path class="cls-5" d="M37 72h4l4-8-8 4v4zm-9 7h-4l-7-10 11 6v4zm10-26h4l7-10-11 6v4zM24 63L13 51l16 7v5h-5z"/><path class="cls-4" d="M33 89V36"/><path class="cls-5" d="M29 41l-10-8 5 11 5 2v-5z"/><path class="cls-4" d="M25.5 98l4-4 3 3 3-3 4 4"/></g></g></svg>