<svg xmlns="http://www.w3.org/2000/svg" viewBox="0 0 193 109"><defs><style>.cls-1,.cls-5{fill:#fff;}.cls-2,.cls-6{fill:#ababab;}.cls-3,.cls-4{fill:none;}.cls-3,.cls-4,.cls-5,.cls-6{stroke:#262626;stroke-linejoin:round;stroke-width:2px;}.cls-4,.cls-5{stroke-linecap:round;}</style></defs><title>Asset 1</title><g id="Layer_2" data-name="Layer 2"><g id="Illustrations"><polygon class="cls-1" points="100.5 61 120 61 126 61 141 55 141 36 123 29 105 35.97 104 42 100.5 61"/><polyline class="cls-1" points="133 14 136 14 136 17 133 18.47"/><polyline class="cls-1" points="71 70 64 108 78 70"/><polyline class="cls-1" points="135 70 139 108 121 76 103 108 108 70"/><polygon class="cls-1" points="158 70 66 70 58 61 166 61 158 70"/><polyline class="cls-1" points="154 70 161 108 147 70"/><polygon class="cls-1" points="158 61 151 61 149 48 160 48 158 61"/><polygon class="cls-1" points="133 23 123 27 113 23 113 6.47 123 1 133 6.47 133 23"/><polygon class="cls-1" points="37 108 28 108 23 89 42 89 37 108"/><polygon class="cls-2" points="121 76 139 108 135 70 113 70 109.53 96.4 121 76"/><polygon class="cls-2" points="155.1 76 154 70 147 70 149.21 76 155.1 76"/><polygon class="cls-2" points="69.89 76 71 70 78 70 75.79 76 69.89 76"/><polygon class="cls-2" points="32.5 89 42 89 37 108 32.5 108 32.5 89"/><polygon class="cls-2" points="154 61 158 61 160 48 154 48 154 61"/><polygon class="cls-2" points="113 12 113 10.5 123 5 133 10.5 133 12 113 12"/><polygon class="cls-3" points="133 23 123 27 113 23 113 6.47 123 1 133 6.47 133 23"/><line class="cls-4" x1="118" y1="16.5" x2="118" y2="15"/><line class="cls-4" x1="126" y1="16.5" x2="126" y2="15"/><polygon class="cls-5" points="72.33 61 65 35 98 35 105.33 61 72.33 61"/><polygon class="cls-6" points="87.5 47.5 84.5 49.5 81.5 47.5 81.5 44.5 84.5 42.5 87.5 44.5 87.5 47.5"/><polyline class="cls-4" points="129.27 31.43 123 44 116.73 31.43"/><line class="cls-4" x1="133" y1="12" x2="104" y2="12"/><polyline class="cls-4" points="124.5 21 122 22 119.5 21"/><polyline class="cls-4" points="133 14 136 14 136 17 133 18.47"/><line class="cls-4" x1="104.2" y1="57" x2="71.2" y2="57"/><polygon class="cls-5" points="105.33 61 121 61 119 57 104.2 57 105.33 61"/><polyline class="cls-4" points="135 43 135 50 120 61 126 61 141 55 141 36 123 29 105 35.97 104 42"/><line class="cls-4" x1="135" y1="43" x2="135" y2="48"/><polygon class="cls-4" points="158 70 66 70 58 61 166 61 158 70"/><polyline class="cls-4" points="71 70 64 108 78 70"/><polyline class="cls-4" points="154 70 161 108 147 70"/><line class="cls-4" x1="10" y1="108" x2="184" y2="108"/><line class="cls-4" x1="189" y1="108" x2="192" y2="108"/><line class="cls-4" x1="1" y1="108" x2="4" y2="108"/><polyline class="cls-4" points="135 70 139 108 121 76 103 108 108 70"/><polyline class="cls-4" points="151 42 153 40 149 36 151 34"/><polyline class="cls-4" points="158 42 160 40 156 36 158 34"/><polygon class="cls-4" points="158 61 151 61 149 48 160 48 158 61"/><polygon class="cls-4" points="37 108 28 108 23 89 42 89 37 108"/><polygon class="cls-5" points="37 72 41 72 45 64 37 68 37 72"/><polygon class="cls-5" points="28 79 24 79 17 69 28 75 28 79"/><polygon class="cls-5" points="38 53 42 53 49 43 38 49 38 53"/><polygon class="cls-5" points="24 63 13 51 29 58 29 63 24 63"/><line class="cls-4" x1="33" y1="89" x2="33" y2="36"/><polygon class="cls-5" points="29 41 19 33 24 44 29 46 29 41"/><polyline class="cls-4" points="25.5 98 29.5 94 32.5 97 35.5 94 39.5 98"/></g></g></svg>